HIERARCHY
ROOT Hips
{
    OFFSET 0.000000 0.000000 0.000000
    CHANNELS 6 Xposition Yposition Zposition Zrotation Xrotation Yrotation
    JOINT Spine
    {
        OFFSET -0.000000 6.993131 0.000000
        CHANNELS 3 Zrotation Xrotation Yrotation
        JOINT Spine1
        {
            OFFSET -0.000000 20.649729 0.000000
            CHANNELS 3 Zrotation Xrotation Yrotation
            JOINT Neck
            {
                OFFSET -0.000000 20.564924 1.869539
                CHANNELS 3 Zrotation Xrotation Yrotation
                JOINT Head
                {
                    OFFSET -0.000000 11.939490 -1.705642
                    CHANNELS 3 Zrotation Xrotation Yrotation
                    End Site
                    {
                        OFFSET -0.000000 21.320518 0.000000
                    }
                }
            }
            JOINT LeftShoulder
            {
                OFFSET 3.446977 19.850397 -0.038759
                CHANNELS 3 Zrotation Xrotation Yrotation
                JOINT LeftArm
                {
                    OFFSET 7.083611 0.000000 0.000000
                    CHANNELS 3 Zrotation Xrotation Yrotation
                    JOINT LeftForeArm
                    {
                        OFFSET 32.044487 0.000000 0.000000
                        CHANNELS 3 Zrotation Xrotation Yrotation
                        JOINT LeftHand
                        {
                            OFFSET 22.068741 0.000000 0.000000
                            CHANNELS 3 Zrotation Xrotation Yrotation
                            End Site
                            {
                                OFFSET 12.792312 0.000000 0.000000
                            }
                        }
                    }
                }
            }
            JOINT RightShoulder
            {
                OFFSET -3.365844 19.850397 -0.038759
                CHANNELS 3 Zrotation Xrotation Yrotation
                JOINT RightArm
                {
                    OFFSET -7.083611 0.000000 0.000000
                    CHANNELS 3 Zrotation Xrotation Yrotation
                    JOINT RightForeArm
                    {
                        OFFSET -32.044487 0.000000 0.000000
                        CHANNELS 3 Zrotation Xrotation Yrotation
                        JOINT RightHand
                        {
                            OFFSET -22.068741 0.000000 0.000000
                            CHANNELS 3 Zrotation Xrotation Yrotation
                            End Site
                            {
                                OFFSET -12.792312 0.000000 0.000000
                            }
                        }
                    }
                }
            }
        }
    }
    JOINT LeftUpLeg
    {
        OFFSET 8.528208 0.000000 0.000000
        CHANNELS 3 Zrotation Xrotation Yrotation
        JOINT LeftLeg
        {
            OFFSET -0.000000 -31.874865 0.000000
            CHANNELS 3 Zrotation Xrotation Yrotation
            JOINT LeftFoot
            {
                OFFSET -0.000000 -38.221939 0.000000
                CHANNELS 3 Zrotation Xrotation Yrotation
                JOINT LeftToeBase
                {
                    OFFSET -0.000000 -5.543335 12.792312
                    CHANNELS 3 Zrotation Xrotation Yrotation
                    End Site
                    {
                        OFFSET -0.000000 0.000000 3.411283
                    }
                }
            }
        }
    }
    JOINT RightUpLeg
    {
        OFFSET -8.528208 0.000000 0.000000
        CHANNELS 3 Zrotation Xrotation Yrotation
        JOINT RightLeg
        {
            OFFSET -0.000000 -31.874865 0.000000
            CHANNELS 3 Zrotation Xrotation Yrotation
            JOINT RightFoot
            {
                OFFSET -0.000000 -38.221939 0.000000
                CHANNELS 3 Zrotation Xrotation Yrotation
                JOINT RightToeBase
                {
                    OFFSET -0.000000 -5.543335 12.792312
                    CHANNELS 3 Zrotation Xrotation Yrotation
                    End Site
                    {
                        OFFSET -0.000000 0.000000 3.411283
                    }
                }
            }
        }
    }
}
MOTION
Frames:    10
Frame Time:    0.008333
35.605179    75.485207    28.247902    0.201436    0.635679    92.631248    1.351769    -3.744915    -0.784739    -8.067231    3.193803    -0.603676    7.719692    5.568489    8.634138    1.423913    -0.933948    8.434376    11.326033    6.225891    -1.562586    -37.901070    27.310703    -25.538824    62.979111    -43.654984    -71.833969    37.015247    8.756382    8.263949    13.597964    11.191841    -1.059764    40.220001    54.016800    14.926785    -6.709596    -7.874376    29.604092    0.963115    -6.127362    -1.813465    -2.593143    -1.681503    0.862278    2.629801    11.708267    -1.665690    -0.852171    -12.691184    -2.498643    0.000000    0.000000    0.000000    -11.782450    -0.455102    0.865458    10.019548    8.157395    -0.910505    -3.236509    -7.223419    -7.290631    0.000000    0.000000    0.000000    
35.600300    75.481537    28.244967    0.184143    0.617870    92.574554    1.457715    -3.705066    -0.790005    -8.219233    3.106053    -0.613978    7.800656    5.727752    8.687613    1.327136    -1.129206    8.480877    11.331928    6.286543    -1.452475    -38.502537    28.260204    -25.050999    60.830708    -42.766365    -73.178467    36.564419    8.625958    7.672347    13.712277    11.221554    -0.993905    40.243847    54.023232    14.911379    -6.687658    -7.924886    29.691151    1.057284    -6.179228    -1.738825    -2.587386    -1.722255    0.818511    2.632906    11.750684    -1.573611    -0.834914    -12.719624    -2.501689    0.000000    0.000000    0.000000    -11.716669    -0.411570    0.630256    9.887846    8.018079    -1.007966    -3.190516    -7.173809    -6.885480    0.000000    0.000000    0.000000    
35.613586    75.483612    28.237040    0.204259    0.598478    92.541962    1.554537    -3.705213    -0.773976    -8.363914    3.154542    -0.593566    7.920760    5.780468    8.721206    1.224600    -1.284189    8.493935    11.273352    6.432739    -1.363011    -38.919937    29.272787    -24.797277    59.399185    -41.970646    -73.760834    35.353050    8.306326    7.040539    13.834550    11.202480    -1.039152    40.168091    54.091454    14.996764    -6.682613    -7.903901    29.788656    0.959262    -6.151946    -1.737631    -2.581809    -1.701922    0.744185    2.628818    11.778632    -1.502200    -0.842181    -12.729819    -2.461344    0.000000    0.000000    0.000000    -11.708884    -0.360231    0.599858    9.891613    7.968849    -0.979104    -3.164175    -7.138237    -6.849870    0.000000    0.000000    0.000000    
35.627506    75.482689    28.232496    0.182508    0.584055    92.486816    1.638464    -3.759734    -0.767865    -8.508079    3.224620    -0.581785    7.949185    6.028822    8.714533    1.231802    -1.768255    8.508104    11.052587    6.715418    -1.225248    -39.115383    30.108376    -24.518110    57.781937    -41.067600    -74.497688    34.197353    8.146068    6.639752    13.946842    11.186945    -1.042998    40.105099    54.142235    15.088197    -6.703517    -7.859251    29.878857    0.936465    -6.094827    -1.640978    -2.578019    -1.715587    0.737461    2.627794    11.794781    -1.487558    -0.829650    -12.770082    -2.409053    0.000000    0.000000    0.000000    -11.715416    -0.365755    0.594286    9.913943    7.933661    -0.994761    -3.165149    -7.119585    -6.771122    0.000000    0.000000    0.000000    
35.637302    75.481987    28.229385    0.161007    0.564517    92.439011    1.679424    -3.774932    -0.757978    -8.583393    3.213722    -0.572135    8.054595    6.122754    8.757898    1.160069    -1.919660    8.540260    10.849393    6.632982    -1.015462    -39.444386    31.422886    -24.149540    56.395943    -40.162197    -74.814156    32.860176    7.659445    5.713612    14.059990    11.219775    -1.066038    39.990288    54.197868    15.200442    -6.759940    -7.788180    29.964937    0.867537    -6.000501    -1.436490    -2.568069    -1.738593    0.739271    2.636380    11.818548    -1.462158    -0.833031    -12.787683    -2.396644    0.000000    0.000000    0.000000    -11.710702    -0.375093    0.600500    9.927201    7.908841    -0.942902    -3.165092    -7.098842    -6.780335    0.000000    0.000000    0.000000    
35.648022    75.478790    28.226635    0.142672    0.546372    92.415718    1.664500    -3.826405    -0.741316    -8.550014    3.322983    -0.548492    8.116420    6.073158    8.802901    1.084755    -2.011345    8.566509    10.710275    6.697833    -0.955018    -39.948112    32.102749    -23.717997    54.846790    -39.003468    -75.474403    31.277140    7.782072    5.235308    14.125114    11.148775    -1.173702    39.872940    54.280685    15.328728    -6.763721    -7.757061    30.043112    0.888828    -5.962566    -1.300727    -2.558225    -1.761296    0.745793    2.644114    11.852538    -1.443916    -0.795566    -12.830913    -2.393362    0.000000    0.000000    0.000000    -11.704929    -0.374037    0.584232    9.937812    7.881104    -0.914613    -3.146116    -7.096467    -6.768065    0.000000    0.000000    0.000000    
35.658108    75.484428    28.225210    0.119274    0.557318    92.381020    1.567860    -3.831458    -0.695517    -8.462756    3.315411    -0.502669    8.209369    6.110315    8.816848    1.000300    -2.114858    8.562447    10.592652    6.844276    -0.977122    -40.448956    32.974369    -23.371675    53.212109    -37.808762    -75.909332    29.464544    7.606897    4.718985    14.206699    11.143135    -1.336132    39.734386    54.360271    15.451695    -6.740464    -7.772893    30.141712    1.173898    -5.979943    -1.128143    -2.578206    -1.777227    0.778353    2.659806    11.850175    -1.413933    -0.864233    -12.787940    -2.435778    0.000000    0.000000    0.000000    -11.724436    -0.382297    0.621843    9.946742    7.845555    -0.929761    -3.130656    -7.071474    -6.759297    0.000000    0.000000    0.000000    
35.672348    75.496483    28.218922    0.111102    0.617212    92.338959    1.418170    -3.838102    -0.654139    -8.372665    3.322611    -0.458416    8.330563    6.158405    8.838217    0.870945    -2.202050    8.556866    10.510157    7.088235    -1.059663    -40.968224    33.699818    -23.083239    51.761345    -36.543091    -76.104164    27.970991    7.578558    4.403865    14.298240    11.151789    -1.456294    39.597210    54.422550    15.562001    -6.679960    -7.805182    30.242661    1.103697    -6.020983    -1.058052    -2.654334    -1.758856    0.805097    2.670352    11.832021    -1.387276    -0.905490    -12.683587    -2.424307    0.000000    0.000000    0.000000    -11.801145    -0.374244    0.653153    9.964260    7.820992    -0.886672    -3.106188    -7.052155    -6.781186    0.000000    0.000000    0.000000    
35.684708    75.505135    28.217762    0.198090    0.631795    92.344994    1.290170    -3.714222    -0.620145    -8.250564    3.296588    -0.424163    8.479052    6.205022    8.852662    0.714775    -2.292893    8.537036    10.353899    7.266525    -1.089606    -41.447643    34.373158    -22.929096    50.262276    -35.139343    -76.216393    26.343058    7.605305    4.136376    14.315414    11.143634    -1.501862    39.717628    54.389599    15.459101    -6.711996    -7.745853    30.360197    0.833400    -5.943780    -1.178850    -2.666681    -1.659220    0.787394    2.662300    11.820197    -1.343301    -0.900223    -12.632174    -2.446333    0.000000    0.000000    0.000000    -11.808115    -0.265683    0.691316    9.958611    7.797366    -0.966321    -3.072458    -7.028446    -6.726858    0.000000    0.000000    0.000000    
35.728081    75.500168    28.260809    0.191534    0.449485    92.496346    1.271718    -3.814443    -0.635696    -8.049581    3.404315    -0.438544    8.632340    6.239488    8.843683    0.555440    -2.370700    8.490782    10.204958    7.439184    -1.109305    -41.752865    35.283581    -22.858086    48.672653    -33.849907    -76.260231    24.147837    7.460547    4.483020    14.498634    11.099504    -1.807586    39.350189    54.604073    15.700625    -6.730187    -7.794369    30.410427    1.284827    -5.985496    -0.861738    -2.403563    -1.659677    0.780498    2.603340    11.834400    -1.460418    -0.834414    -12.811664    -2.473027    0.000000    0.000000    0.000000    -11.541087    -0.120457    0.654275    9.886518    7.638437    -1.039769    -3.020789    -6.973031    -6.761940    0.000000    0.000000    0.000000    
